<svg class="main-svg" xmlns="http://www.w3.org/2000/svg" xmlns:xlink="http://www.w3.org/1999/xlink" width="700" height="500" style="" viewBox="0 0 700 500"><rect x="0" y="0" width="700" height="500" style="fill: rgb(255, 255, 255); fill-opacity: 1;"/><defs id="defs-38145b"><g class="clips"><clipPath id="clip38145bxyplot" class="plotclip"><rect width="243" height="320"/></clipPath><clipPath id="clip38145bx2y2plot" class="plotclip"><rect width="242.99999999999997" height="320"/></clipPath><clipPath class="axesclip" id="clip38145bx"><rect x="80" y="0" width="243" height="500"/></clipPath><clipPath class="axesclip" id="clip38145by"><rect x="0" y="100" width="700" height="320"/></clipPath><clipPath class="axesclip" id="clip38145bxy"><rect x="80" y="100" width="243" height="320"/></clipPath><clipPath class="axesclip" id="clip38145by2"><rect x="0" y="100" width="700" height="320"/></clipPath><clipPath class="axesclip" id="clip38145bxy2"><rect x="80" y="100" width="243" height="320"/></clipPath><clipPath class="axesclip" id="clip38145bx2"><rect x="377" y="0" width="242.99999999999997" height="500"/></clipPath><clipPath class="axesclip" id="clip38145bx2y"><rect x="377" y="100" width="242.99999999999997" height="320"/></clipPath><clipPath class="axesclip" id="clip38145bx2y2"><rect x="377" y="100" width="242.99999999999997" height="320"/></clipPath></g><g class="gradients"/></defs><g class="bglayer"><rect class="bg" x="80" y="100" width="243" height="320" style="fill: rgb(229, 236, 246); fill-opacity: 1; stroke-width: 0;"/><rect class="bg" x="377" y="100" width="242.99999999999997" height="320" style="fill: rgb(229, 236, 246); fill-opacity: 1; stroke-width: 0;"/></g><g class="layer-below"><g class="imagelayer"/><g class="shapelayer"/></g><g class="cartesianlayer"><g class="subplot xy"><g class="layer-subplot"><g class="shapelayer"/><g class="imagelayer"/></g><g class="gridlayer"><g class="x"><path class="xgrid crisp" transform="translate(129.21,0)" d="M0,100v320" style="stroke: rgb(255, 255, 255); stroke-opacity: 1; stroke-width: 1px;"/><path class="xgrid crisp" transform="translate(236.65,0)" d="M0,100v320" style="stroke: rgb(255, 255, 255); stroke-opacity: 1; stroke-width: 1px;"/></g><g class="y"><path class="ygrid crisp" transform="translate(0,400.25)" d="M80,0h243" style="stroke: rgb(255, 255, 255); stroke-opacity: 1; stroke-width: 1px;"/><path class="ygrid crisp" transform="translate(0,377.81)" d="M80,0h243" style="stroke: rgb(255, 255, 255); stroke-opacity: 1; stroke-width: 1px;"/><path class="ygrid crisp" transform="translate(0,355.37)" d="M80,0h243" style="stroke: rgb(255, 255, 255); stroke-opacity: 1; stroke-width: 1px;"/><path class="ygrid crisp" transform="translate(0,332.93)" d="M80,0h243" style="stroke: rgb(255, 255, 255); stroke-opacity: 1; stroke-width: 1px;"/><path class="ygrid crisp" transform="translate(0,310.49)" d="M80,0h243" style="stroke: rgb(255, 255, 255); stroke-opacity: 1; stroke-width: 1px;"/><path class="ygrid crisp" transform="translate(0,288.05)" d="M80,0h243" style="stroke: rgb(255, 255, 255); stroke-opacity: 1; stroke-width: 1px;"/><path class="ygrid crisp" transform="translate(0,265.61)" d="M80,0h243" style="stroke: rgb(255, 255, 255); stroke-opacity: 1; stroke-width: 1px;"/><path class="ygrid crisp" transform="translate(0,243.17)" d="M80,0h243" style="stroke: rgb(255, 255, 255); stroke-opacity: 1; stroke-width: 1px;"/><path class="ygrid crisp" transform="translate(0,220.73000000000002)" d="M80,0h243" style="stroke: rgb(255, 255, 255); stroke-opacity: 1; stroke-width: 1px;"/><path class="ygrid crisp" transform="translate(0,198.29000000000002)" d="M80,0h243" style="stroke: rgb(255, 255, 255); stroke-opacity: 1; stroke-width: 1px;"/><path class="ygrid crisp" transform="translate(0,175.85)" d="M80,0h243" style="stroke: rgb(255, 255, 255); stroke-opacity: 1; stroke-width: 1px;"/><path class="ygrid crisp" transform="translate(0,153.41)" d="M80,0h243" style="stroke: rgb(255, 255, 255); stroke-opacity: 1; stroke-width: 1px;"/><path class="ygrid crisp" transform="translate(0,130.97)" d="M80,0h243" style="stroke: rgb(255, 255, 255); stroke-opacity: 1; stroke-width: 1px;"/></g></g><g class="zerolinelayer"/><path class="xlines-below"/><path class="ylines-below"/><g class="overlines-below"/><g class="xaxislayer-below"/><g class="yaxislayer-below"/><g class="overaxes-below"/><g class="plot" transform="translate(80,100)" clip-path="url('#clip38145bxyplot')"><g class="scatterlayer mlayer"><g class="trace scatter trace6c4a80" style="stroke-miterlimit: 2; opacity: 1;"><g class="fills"/><g class="errorbars"/><g class="lines"/><g class="points"><path class="point" transform="translate(24.57,300.25)" d="M3.6,1.2H1.2V3.6H-1.2V1.2H-3.6V-1.2H-1.2V-3.6H1.2V-1.2H3.6Z" style="opacity: 1; stroke-width: 0px; fill: rgb(99, 110, 250); fill-opacity: 1;"/><path class="point" transform="translate(29.4,289.03)" d="M3.6,1.2H1.2V3.6H-1.2V1.2H-3.6V-1.2H-1.2V-3.6H1.2V-1.2H3.6Z" style="opacity: 1; stroke-width: 0px; fill: rgb(99, 110, 250); fill-opacity: 1;"/><path class="point" transform="translate(72.21,277.81)" d="M3.6,1.2H1.2V3.6H-1.2V1.2H-3.6V-1.2H-1.2V-3.6H1.2V-1.2H3.6Z" style="opacity: 1; stroke-width: 0px; fill: rgb(99, 110, 250); fill-opacity: 1;"/><path class="point" transform="translate(35.5,266.59)" d="M3.6,1.2H1.2V3.6H-1.2V1.2H-3.6V-1.2H-1.2V-3.6H1.2V-1.2H3.6Z" style="opacity: 1; stroke-width: 0px; fill: rgb(99, 110, 250); fill-opacity: 1;"/><path class="point" transform="translate(183.79,255.37)" d="M3.6,1.2H1.2V3.6H-1.2V1.2H-3.6V-1.2H-1.2V-3.6H1.2V-1.2H3.6Z" style="opacity: 1; stroke-width: 0px; fill: rgb(99, 110, 250); fill-opacity: 1;"/><path class="point" transform="translate(30.33,244.15)" d="M3.6,1.2H1.2V3.6H-1.2V1.2H-3.6V-1.2H-1.2V-3.6H1.2V-1.2H3.6Z" style="opacity: 1; stroke-width: 0px; fill: rgb(99, 110, 250); fill-opacity: 1;"/><path class="point" transform="translate(31.28,232.93)" d="M3.6,1.2H1.2V3.6H-1.2V1.2H-3.6V-1.2H-1.2V-3.6H1.2V-1.2H3.6Z" style="opacity: 1; stroke-width: 0px; fill: rgb(99, 110, 250); fill-opacity: 1;"/></g><g class="text"/></g><g class="trace scatter tracef2ca15" style="stroke-miterlimit: 2; opacity: 1;"><g class="fills"/><g class="errorbars"/><g class="lines"/><g class="points"><path class="point" transform="translate(28.68,221.71)" d="M3,0A3,3 0 1,1 0,-3A3,3 0 0,1 3,0Z" style="opacity: 1; stroke: rgb(99, 110, 250); stroke-opacity: 1; stroke-width: 1px; fill: none;"/><path class="point" transform="translate(15.9,210.49)" d="M3,0A3,3 0 1,1 0,-3A3,3 0 0,1 3,0Z" style="opacity: 1; stroke: rgb(99, 110, 250); stroke-opacity: 1; stroke-width: 1px; fill: none;"/><path class="point" transform="translate(60.24,199.27)" d="M3,0A3,3 0 1,1 0,-3A3,3 0 0,1 3,0Z" style="opacity: 1; stroke: rgb(99, 110, 250); stroke-opacity: 1; stroke-width: 1px; fill: none;"/><path class="point" transform="translate(25.66,188.05)" d="M3,0A3,3 0 1,1 0,-3A3,3 0 0,1 3,0Z" style="opacity: 1; stroke: rgb(99, 110, 250); stroke-opacity: 1; stroke-width: 1px; fill: none;"/><path class="point" transform="translate(21.43,176.83)" d="M3,0A3,3 0 1,1 0,-3A3,3 0 0,1 3,0Z" style="opacity: 1; stroke: rgb(99, 110, 250); stroke-opacity: 1; stroke-width: 1px; fill: none;"/><path class="point" transform="translate(37.35,165.61)" d="M3,0A3,3 0 1,1 0,-3A3,3 0 0,1 3,0Z" style="opacity: 1; stroke: rgb(99, 110, 250); stroke-opacity: 1; stroke-width: 1px; fill: none;"/><path class="point" transform="translate(16.26,154.39)" d="M3,0A3,3 0 1,1 0,-3A3,3 0 0,1 3,0Z" style="opacity: 1; stroke: rgb(99, 110, 250); stroke-opacity: 1; stroke-width: 1px; fill: none;"/><path class="point" transform="translate(18.79,143.17)" d="M3,0A3,3 0 1,1 0,-3A3,3 0 0,1 3,0Z" style="opacity: 1; stroke: rgb(99, 110, 250); stroke-opacity: 1; stroke-width: 1px; fill: none;"/><path class="point" transform="translate(19.26,131.95)" d="M3,0A3,3 0 1,1 0,-3A3,3 0 0,1 3,0Z" style="opacity: 1; stroke: rgb(99, 110, 250); stroke-opacity: 1; stroke-width: 1px; fill: none;"/><path class="point" transform="translate(54.6,120.73)" d="M3,0A3,3 0 1,1 0,-3A3,3 0 0,1 3,0Z" style="opacity: 1; stroke: rgb(99, 110, 250); stroke-opacity: 1; stroke-width: 1px; fill: none;"/><path class="point" transform="translate(15.99,109.51)" d="M3,0A3,3 0 1,1 0,-3A3,3 0 0,1 3,0Z" style="opacity: 1; stroke: rgb(99, 110, 250); stroke-opacity: 1; stroke-width: 1px; fill: none;"/><path class="point" transform="translate(18.29,98.29)" d="M3,0A3,3 0 1,1 0,-3A3,3 0 0,1 3,0Z" style="opacity: 1; stroke: rgb(99, 110, 250); stroke-opacity: 1; stroke-width: 1px; fill: none;"/><path class="point" transform="translate(177.84,87.07)" d="M3,0A3,3 0 1,1 0,-3A3,3 0 0,1 3,0Z" style="opacity: 1; stroke: rgb(99, 110, 250); stroke-opacity: 1; stroke-width: 1px; fill: none;"/><path class="point" transform="translate(128.47,75.85)" d="M3,0A3,3 0 1,1 0,-3A3,3 0 0,1 3,0Z" style="opacity: 1; stroke: rgb(99, 110, 250); stroke-opacity: 1; stroke-width: 1px; fill: none;"/><path class="point" transform="translate(20,64.63)" d="M3,0A3,3 0 1,1 0,-3A3,3 0 0,1 3,0Z" style="opacity: 1; stroke: rgb(99, 110, 250); stroke-opacity: 1; stroke-width: 1px; fill: none;"/><path class="point" transform="translate(90.37,53.41)" d="M3,0A3,3 0 1,1 0,-3A3,3 0 0,1 3,0Z" style="opacity: 1; stroke: rgb(99, 110, 250); stroke-opacity: 1; stroke-width: 1px; fill: none;"/><path class="point" transform="translate(23.99,42.19)" d="M3,0A3,3 0 1,1 0,-3A3,3 0 0,1 3,0Z" style="opacity: 1; stroke: rgb(99, 110, 250); stroke-opacity: 1; stroke-width: 1px; fill: none;"/><path class="point" transform="translate(16.07,30.97)" d="M3,0A3,3 0 1,1 0,-3A3,3 0 0,1 3,0Z" style="opacity: 1; stroke: rgb(99, 110, 250); stroke-opacity: 1; stroke-width: 1px; fill: none;"/><path class="point" transform="translate(16.12,19.75)" d="M3,0A3,3 0 1,1 0,-3A3,3 0 0,1 3,0Z" style="opacity: 1; stroke: rgb(99, 110, 250); stroke-opacity: 1; stroke-width: 1px; fill: none;"/></g><g class="text"/></g><g class="trace scatter trace55f699" style="stroke-miterlimit: 2; opacity: 1;"><g class="fills"/><g class="errorbars"/><g class="lines"/><g class="points"><path class="point" transform="translate(24.48,300.25)" d="M3.6,1.2H1.2V3.6H-1.2V1.2H-3.6V-1.2H-1.2V-3.6H1.2V-1.2H3.6Z" style="opacity: 1; stroke-width: 0px; fill: rgb(239, 85, 59); fill-opacity: 1;"/><path class="point" transform="translate(20.42,289.03)" d="M3.6,1.2H1.2V3.6H-1.2V1.2H-3.6V-1.2H-1.2V-3.6H1.2V-1.2H3.6Z" style="opacity: 1; stroke-width: 0px; fill: rgb(239, 85, 59); fill-opacity: 1;"/><path class="point" transform="translate(62.43,277.81)" d="M3.6,1.2H1.2V3.6H-1.2V1.2H-3.6V-1.2H-1.2V-3.6H1.2V-1.2H3.6Z" style="opacity: 1; stroke-width: 0px; fill: rgb(239, 85, 59); fill-opacity: 1;"/><path class="point" transform="translate(21.67,266.59)" d="M3.6,1.2H1.2V3.6H-1.2V1.2H-3.6V-1.2H-1.2V-3.6H1.2V-1.2H3.6Z" style="opacity: 1; stroke-width: 0px; fill: rgb(239, 85, 59); fill-opacity: 1;"/><path class="point" transform="translate(173.44,255.37)" d="M3.6,1.2H1.2V3.6H-1.2V1.2H-3.6V-1.2H-1.2V-3.6H1.2V-1.2H3.6Z" style="opacity: 1; stroke-width: 0px; fill: rgb(239, 85, 59); fill-opacity: 1;"/><path class="point" transform="translate(21.11,244.15)" d="M3.6,1.2H1.2V3.6H-1.2V1.2H-3.6V-1.2H-1.2V-3.6H1.2V-1.2H3.6Z" style="opacity: 1; stroke-width: 0px; fill: rgb(239, 85, 59); fill-opacity: 1;"/><path class="point" transform="translate(17.04,232.93)" d="M3.6,1.2H1.2V3.6H-1.2V1.2H-3.6V-1.2H-1.2V-3.6H1.2V-1.2H3.6Z" style="opacity: 1; stroke-width: 0px; fill: rgb(239, 85, 59); fill-opacity: 1;"/></g><g class="text"/></g><g class="trace scatter trace53f85c" style="stroke-miterlimit: 2; opacity: 1;"><g class="fills"/><g class="errorbars"/><g class="lines"/><g class="points"><path class="point" transform="translate(30.58,221.71)" d="M3,0A3,3 0 1,1 0,-3A3,3 0 0,1 3,0Z" style="opacity: 1; stroke: rgb(239, 85, 59); stroke-opacity: 1; stroke-width: 1px; fill: none;"/><path class="point" transform="translate(24,210.49)" d="M3,0A3,3 0 1,1 0,-3A3,3 0 0,1 3,0Z" style="opacity: 1; stroke: rgb(239, 85, 59); stroke-opacity: 1; stroke-width: 1px; fill: none;"/><path class="point" transform="translate(104.07,199.27)" d="M3,0A3,3 0 1,1 0,-3A3,3 0 0,1 3,0Z" style="opacity: 1; stroke: rgb(239, 85, 59); stroke-opacity: 1; stroke-width: 1px; fill: none;"/><path class="point" transform="translate(65.7,188.05)" d="M3,0A3,3 0 1,1 0,-3A3,3 0 0,1 3,0Z" style="opacity: 1; stroke: rgb(239, 85, 59); stroke-opacity: 1; stroke-width: 1px; fill: none;"/><path class="point" transform="translate(30.69,176.83)" d="M3,0A3,3 0 1,1 0,-3A3,3 0 0,1 3,0Z" style="opacity: 1; stroke: rgb(239, 85, 59); stroke-opacity: 1; stroke-width: 1px; fill: none;"/><path class="point" transform="translate(53.56,165.61)" d="M3,0A3,3 0 1,1 0,-3A3,3 0 0,1 3,0Z" style="opacity: 1; stroke: rgb(239, 85, 59); stroke-opacity: 1; stroke-width: 1px; fill: none;"/><path class="point" transform="translate(63.87,154.39)" d="M3,0A3,3 0 1,1 0,-3A3,3 0 0,1 3,0Z" style="opacity: 1; stroke: rgb(239, 85, 59); stroke-opacity: 1; stroke-width: 1px; fill: none;"/><path class="point" transform="translate(20.3,143.17)" d="M3,0A3,3 0 1,1 0,-3A3,3 0 0,1 3,0Z" style="opacity: 1; stroke: rgb(239, 85, 59); stroke-opacity: 1; stroke-width: 1px; fill: none;"/><path class="point" transform="translate(36.97,131.95)" d="M3,0A3,3 0 1,1 0,-3A3,3 0 0,1 3,0Z" style="opacity: 1; stroke: rgb(239, 85, 59); stroke-opacity: 1; stroke-width: 1px; fill: none;"/><path class="point" transform="translate(54.64,120.73)" d="M3,0A3,3 0 1,1 0,-3A3,3 0 0,1 3,0Z" style="opacity: 1; stroke: rgb(239, 85, 59); stroke-opacity: 1; stroke-width: 1px; fill: none;"/><path class="point" transform="translate(56.32,109.51)" d="M3,0A3,3 0 1,1 0,-3A3,3 0 0,1 3,0Z" style="opacity: 1; stroke: rgb(239, 85, 59); stroke-opacity: 1; stroke-width: 1px; fill: none;"/><path class="point" transform="translate(49.93,98.29)" d="M3,0A3,3 0 1,1 0,-3A3,3 0 0,1 3,0Z" style="opacity: 1; stroke: rgb(239, 85, 59); stroke-opacity: 1; stroke-width: 1px; fill: none;"/><path class="point" transform="translate(189.41,87.07)" d="M3,0A3,3 0 1,1 0,-3A3,3 0 0,1 3,0Z" style="opacity: 1; stroke: rgb(239, 85, 59); stroke-opacity: 1; stroke-width: 1px; fill: none;"/><path class="point" transform="translate(135.56,75.85)" d="M3,0A3,3 0 1,1 0,-3A3,3 0 0,1 3,0Z" style="opacity: 1; stroke: rgb(239, 85, 59); stroke-opacity: 1; stroke-width: 1px; fill: none;"/><path class="point" transform="translate(227.1,64.63)" d="M3,0A3,3 0 1,1 0,-3A3,3 0 0,1 3,0Z" style="opacity: 1; stroke: rgb(239, 85, 59); stroke-opacity: 1; stroke-width: 1px; fill: none;"/><path class="point" transform="translate(90.43,53.41)" d="M3,0A3,3 0 1,1 0,-3A3,3 0 0,1 3,0Z" style="opacity: 1; stroke: rgb(239, 85, 59); stroke-opacity: 1; stroke-width: 1px; fill: none;"/><path class="point" transform="translate(40.51,42.19)" d="M3,0A3,3 0 1,1 0,-3A3,3 0 0,1 3,0Z" style="opacity: 1; stroke: rgb(239, 85, 59); stroke-opacity: 1; stroke-width: 1px; fill: none;"/><path class="point" transform="translate(42.26,30.97)" d="M3,0A3,3 0 1,1 0,-3A3,3 0 0,1 3,0Z" style="opacity: 1; stroke: rgb(239, 85, 59); stroke-opacity: 1; stroke-width: 1px; fill: none;"/><path class="point" transform="translate(28.16,19.75)" d="M3,0A3,3 0 1,1 0,-3A3,3 0 0,1 3,0Z" style="opacity: 1; stroke: rgb(239, 85, 59); stroke-opacity: 1; stroke-width: 1px; fill: none;"/></g><g class="text"/></g></g></g><g class="overplot"/><path class="xlines-above crisp" d="M0,0" style="fill: none;"/><path class="ylines-above crisp" d="M0,0" style="fill: none;"/><g class="overlines-above"/><g class="xaxislayer-above"><g class="xtick"><text text-anchor="middle" x="0" y="433" transform="translate(129.21,0)" style="font-family: 'Open Sans', verdana, arial, sans-serif; font-size: 12px; fill: rgb(42, 63, 95); fill-opacity: 1; white-space: pre;">0.3</text></g><g class="xtick"><text text-anchor="middle" x="0" y="433" transform="translate(236.65,0)" style="font-family: 'Open Sans', verdana, arial, sans-serif; font-size: 12px; fill: rgb(42, 63, 95); fill-opacity: 1; white-space: pre;">0.35</text></g></g><g class="yaxislayer-above"/><g class="overaxes-above"/></g><g class="subplot x2y2"><g class="layer-subplot"><g class="shapelayer"/><g class="imagelayer"/></g><g class="gridlayer"><g class="x2"><path class="x2grid crisp" transform="translate(468.48,0)" d="M0,100v320" style="stroke: rgb(255, 255, 255); stroke-opacity: 1; stroke-width: 1px;"/><path class="x2grid crisp" transform="translate(563.15,0)" d="M0,100v320" style="stroke: rgb(255, 255, 255); stroke-opacity: 1; stroke-width: 1px;"/></g><g class="y2"><path class="y2grid crisp" transform="translate(0,400.25)" d="M377,0h242.99999999999997" style="stroke: rgb(255, 255, 255); stroke-opacity: 1; stroke-width: 1px;"/><path class="y2grid crisp" transform="translate(0,377.81)" d="M377,0h242.99999999999997" style="stroke: rgb(255, 255, 255); stroke-opacity: 1; stroke-width: 1px;"/><path class="y2grid crisp" transform="translate(0,355.37)" d="M377,0h242.99999999999997" style="stroke: rgb(255, 255, 255); stroke-opacity: 1; stroke-width: 1px;"/><path class="y2grid crisp" transform="translate(0,332.93)" d="M377,0h242.99999999999997" style="stroke: rgb(255, 255, 255); stroke-opacity: 1; stroke-width: 1px;"/><path class="y2grid crisp" transform="translate(0,310.49)" d="M377,0h242.99999999999997" style="stroke: rgb(255, 255, 255); stroke-opacity: 1; stroke-width: 1px;"/><path class="y2grid crisp" transform="translate(0,288.05)" d="M377,0h242.99999999999997" style="stroke: rgb(255, 255, 255); stroke-opacity: 1; stroke-width: 1px;"/><path class="y2grid crisp" transform="translate(0,265.61)" d="M377,0h242.99999999999997" style="stroke: rgb(255, 255, 255); stroke-opacity: 1; stroke-width: 1px;"/><path class="y2grid crisp" transform="translate(0,243.17)" d="M377,0h242.99999999999997" style="stroke: rgb(255, 255, 255); stroke-opacity: 1; stroke-width: 1px;"/><path class="y2grid crisp" transform="translate(0,220.73000000000002)" d="M377,0h242.99999999999997" style="stroke: rgb(255, 255, 255); stroke-opacity: 1; stroke-width: 1px;"/><path class="y2grid crisp" transform="translate(0,198.29000000000002)" d="M377,0h242.99999999999997" style="stroke: rgb(255, 255, 255); stroke-opacity: 1; stroke-width: 1px;"/><path class="y2grid crisp" transform="translate(0,175.85)" d="M377,0h242.99999999999997" style="stroke: rgb(255, 255, 255); stroke-opacity: 1; stroke-width: 1px;"/><path class="y2grid crisp" transform="translate(0,153.41)" d="M377,0h242.99999999999997" style="stroke: rgb(255, 255, 255); stroke-opacity: 1; stroke-width: 1px;"/><path class="y2grid crisp" transform="translate(0,130.97)" d="M377,0h242.99999999999997" style="stroke: rgb(255, 255, 255); stroke-opacity: 1; stroke-width: 1px;"/></g></g><g class="zerolinelayer"/><path class="xlines-below"/><path class="ylines-below"/><g class="overlines-below"/><g class="xaxislayer-below"/><g class="yaxislayer-below"/><g class="overaxes-below"/><g class="plot" transform="translate(377,100)" clip-path="url('#clip38145bx2y2plot')"><g class="scatterlayer mlayer"><g class="trace scatter trace9fdd95" style="stroke-miterlimit: 2; opacity: 1;"><g class="fills"/><g class="errorbars"/><g class="lines"/><g class="points"><path class="point" transform="translate(29.53,300.25)" d="M3,0A3,3 0 1,1 0,-3A3,3 0 0,1 3,0Z" style="opacity: 1; stroke: rgb(99, 110, 250); stroke-opacity: 1; stroke-width: 1px; fill: none;"/><path class="point" transform="translate(24.46,289.03)" d="M3,0A3,3 0 1,1 0,-3A3,3 0 0,1 3,0Z" style="opacity: 1; stroke: rgb(99, 110, 250); stroke-opacity: 1; stroke-width: 1px; fill: none;"/><path class="point" transform="translate(19.06,277.81)" d="M3,0A3,3 0 1,1 0,-3A3,3 0 0,1 3,0Z" style="opacity: 1; stroke: rgb(99, 110, 250); stroke-opacity: 1; stroke-width: 1px; fill: none;"/><path class="point" transform="translate(51.32,266.59)" d="M3,0A3,3 0 1,1 0,-3A3,3 0 0,1 3,0Z" style="opacity: 1; stroke: rgb(99, 110, 250); stroke-opacity: 1; stroke-width: 1px; fill: none;"/><path class="point" transform="translate(32.81,255.37)" d="M3,0A3,3 0 1,1 0,-3A3,3 0 0,1 3,0Z" style="opacity: 1; stroke: rgb(99, 110, 250); stroke-opacity: 1; stroke-width: 1px; fill: none;"/><path class="point" transform="translate(29.51,244.15)" d="M3,0A3,3 0 1,1 0,-3A3,3 0 0,1 3,0Z" style="opacity: 1; stroke: rgb(99, 110, 250); stroke-opacity: 1; stroke-width: 1px; fill: none;"/><path class="point" transform="translate(31.36,232.93)" d="M3,0A3,3 0 1,1 0,-3A3,3 0 0,1 3,0Z" style="opacity: 1; stroke: rgb(99, 110, 250); stroke-opacity: 1; stroke-width: 1px; fill: none;"/><path class="point" transform="translate(32.28,221.71)" d="M3,0A3,3 0 1,1 0,-3A3,3 0 0,1 3,0Z" style="opacity: 1; stroke: rgb(99, 110, 250); stroke-opacity: 1; stroke-width: 1px; fill: none;"/><path class="point" transform="translate(153.12,210.49)" d="M3,0A3,3 0 1,1 0,-3A3,3 0 0,1 3,0Z" style="opacity: 1; stroke: rgb(99, 110, 250); stroke-opacity: 1; stroke-width: 1px; fill: none;"/><path class="point" transform="translate(29.42,199.27)" d="M3,0A3,3 0 1,1 0,-3A3,3 0 0,1 3,0Z" style="opacity: 1; stroke: rgb(99, 110, 250); stroke-opacity: 1; stroke-width: 1px; fill: none;"/><path class="point" transform="translate(32.84,188.05)" d="M3,0A3,3 0 1,1 0,-3A3,3 0 0,1 3,0Z" style="opacity: 1; stroke: rgb(99, 110, 250); stroke-opacity: 1; stroke-width: 1px; fill: none;"/><path class="point" transform="translate(29.24,176.83)" d="M3,0A3,3 0 1,1 0,-3A3,3 0 0,1 3,0Z" style="opacity: 1; stroke: rgb(99, 110, 250); stroke-opacity: 1; stroke-width: 1px; fill: none;"/><path class="point" transform="translate(32.85,165.61)" d="M3,0A3,3 0 1,1 0,-3A3,3 0 0,1 3,0Z" style="opacity: 1; stroke: rgb(99, 110, 250); stroke-opacity: 1; stroke-width: 1px; fill: none;"/><path class="point" transform="translate(99.1,154.39)" d="M3,0A3,3 0 1,1 0,-3A3,3 0 0,1 3,0Z" style="opacity: 1; stroke: rgb(99, 110, 250); stroke-opacity: 1; stroke-width: 1px; fill: none;"/><path class="point" transform="translate(99.68,143.17)" d="M3,0A3,3 0 1,1 0,-3A3,3 0 0,1 3,0Z" style="opacity: 1; stroke: rgb(99, 110, 250); stroke-opacity: 1; stroke-width: 1px; fill: none;"/><path class="point" transform="translate(32.85,131.95)" d="M3,0A3,3 0 1,1 0,-3A3,3 0 0,1 3,0Z" style="opacity: 1; stroke: rgb(99, 110, 250); stroke-opacity: 1; stroke-width: 1px; fill: none;"/><path class="point" transform="translate(33.35,120.73)" d="M3,0A3,3 0 1,1 0,-3A3,3 0 0,1 3,0Z" style="opacity: 1; stroke: rgb(99, 110, 250); stroke-opacity: 1; stroke-width: 1px; fill: none;"/><path class="point" transform="translate(27.43,109.51)" d="M3,0A3,3 0 1,1 0,-3A3,3 0 0,1 3,0Z" style="opacity: 1; stroke: rgb(99, 110, 250); stroke-opacity: 1; stroke-width: 1px; fill: none;"/><path class="point" transform="translate(27.06,98.29)" d="M3,0A3,3 0 1,1 0,-3A3,3 0 0,1 3,0Z" style="opacity: 1; stroke: rgb(99, 110, 250); stroke-opacity: 1; stroke-width: 1px; fill: none;"/><path class="point" transform="translate(15.9,87.07)" d="M3,0A3,3 0 1,1 0,-3A3,3 0 0,1 3,0Z" style="opacity: 1; stroke: rgb(99, 110, 250); stroke-opacity: 1; stroke-width: 1px; fill: none;"/><path class="point" transform="translate(25.08,75.85)" d="M3,0A3,3 0 1,1 0,-3A3,3 0 0,1 3,0Z" style="opacity: 1; stroke: rgb(99, 110, 250); stroke-opacity: 1; stroke-width: 1px; fill: none;"/><path class="point" transform="translate(29.48,64.63)" d="M3,0A3,3 0 1,1 0,-3A3,3 0 0,1 3,0Z" style="opacity: 1; stroke: rgb(99, 110, 250); stroke-opacity: 1; stroke-width: 1px; fill: none;"/><path class="point" transform="translate(29.24,53.41)" d="M3,0A3,3 0 1,1 0,-3A3,3 0 0,1 3,0Z" style="opacity: 1; stroke: rgb(99, 110, 250); stroke-opacity: 1; stroke-width: 1px; fill: none;"/><path class="point" transform="translate(34.37,42.19)" d="M3,0A3,3 0 1,1 0,-3A3,3 0 0,1 3,0Z" style="opacity: 1; stroke: rgb(99, 110, 250); stroke-opacity: 1; stroke-width: 1px; fill: none;"/><path class="point" transform="translate(63.06,30.97)" d="M3,0A3,3 0 1,1 0,-3A3,3 0 0,1 3,0Z" style="opacity: 1; stroke: rgb(99, 110, 250); stroke-opacity: 1; stroke-width: 1px; fill: none;"/></g><g class="text"/></g><g class="trace scatter trace664dab" style="stroke-miterlimit: 2; opacity: 1;"><g class="fills"/><g class="errorbars"/><g class="lines"/><g class="points"><path class="point" transform="translate(107.67,19.75)" d="M3.6,1.2H1.2V3.6H-1.2V1.2H-3.6V-1.2H-1.2V-3.6H1.2V-1.2H3.6Z" style="opacity: 1; stroke-width: 0px; fill: rgb(99, 110, 250); fill-opacity: 1;"/></g><g class="text"/></g><g class="trace scatter trace361951" style="stroke-miterlimit: 2; opacity: 1;"><g class="fills"/><g class="errorbars"/><g class="lines"/><g class="points"><path class="point" transform="translate(32.81,300.25)" d="M3,0A3,3 0 1,1 0,-3A3,3 0 0,1 3,0Z" style="opacity: 1; stroke: rgb(239, 85, 59); stroke-opacity: 1; stroke-width: 1px; fill: none;"/><path class="point" transform="translate(29.12,289.03)" d="M3,0A3,3 0 1,1 0,-3A3,3 0 0,1 3,0Z" style="opacity: 1; stroke: rgb(239, 85, 59); stroke-opacity: 1; stroke-width: 1px; fill: none;"/><path class="point" transform="translate(21.7,277.81)" d="M3,0A3,3 0 1,1 0,-3A3,3 0 0,1 3,0Z" style="opacity: 1; stroke: rgb(239, 85, 59); stroke-opacity: 1; stroke-width: 1px; fill: none;"/><path class="point" transform="translate(61.13,266.59)" d="M3,0A3,3 0 1,1 0,-3A3,3 0 0,1 3,0Z" style="opacity: 1; stroke: rgb(239, 85, 59); stroke-opacity: 1; stroke-width: 1px; fill: none;"/><path class="point" transform="translate(38.87,255.37)" d="M3,0A3,3 0 1,1 0,-3A3,3 0 0,1 3,0Z" style="opacity: 1; stroke: rgb(239, 85, 59); stroke-opacity: 1; stroke-width: 1px; fill: none;"/><path class="point" transform="translate(32.82,244.15)" d="M3,0A3,3 0 1,1 0,-3A3,3 0 0,1 3,0Z" style="opacity: 1; stroke: rgb(239, 85, 59); stroke-opacity: 1; stroke-width: 1px; fill: none;"/><path class="point" transform="translate(35.42,232.93)" d="M3,0A3,3 0 1,1 0,-3A3,3 0 0,1 3,0Z" style="opacity: 1; stroke: rgb(239, 85, 59); stroke-opacity: 1; stroke-width: 1px; fill: none;"/><path class="point" transform="translate(39.13,221.71)" d="M3,0A3,3 0 1,1 0,-3A3,3 0 0,1 3,0Z" style="opacity: 1; stroke: rgb(239, 85, 59); stroke-opacity: 1; stroke-width: 1px; fill: none;"/><path class="point" transform="translate(180.43,210.49)" d="M3,0A3,3 0 1,1 0,-3A3,3 0 0,1 3,0Z" style="opacity: 1; stroke: rgb(239, 85, 59); stroke-opacity: 1; stroke-width: 1px; fill: none;"/><path class="point" transform="translate(32.74,199.27)" d="M3,0A3,3 0 1,1 0,-3A3,3 0 0,1 3,0Z" style="opacity: 1; stroke: rgb(239, 85, 59); stroke-opacity: 1; stroke-width: 1px; fill: none;"/><path class="point" transform="translate(83.53,188.05)" d="M3,0A3,3 0 1,1 0,-3A3,3 0 0,1 3,0Z" style="opacity: 1; stroke: rgb(239, 85, 59); stroke-opacity: 1; stroke-width: 1px; fill: none;"/><path class="point" transform="translate(32.57,176.83)" d="M3,0A3,3 0 1,1 0,-3A3,3 0 0,1 3,0Z" style="opacity: 1; stroke: rgb(239, 85, 59); stroke-opacity: 1; stroke-width: 1px; fill: none;"/><path class="point" transform="translate(61.7,165.61)" d="M3,0A3,3 0 1,1 0,-3A3,3 0 0,1 3,0Z" style="opacity: 1; stroke: rgb(239, 85, 59); stroke-opacity: 1; stroke-width: 1px; fill: none;"/><path class="point" transform="translate(110.06,154.39)" d="M3,0A3,3 0 1,1 0,-3A3,3 0 0,1 3,0Z" style="opacity: 1; stroke: rgb(239, 85, 59); stroke-opacity: 1; stroke-width: 1px; fill: none;"/><path class="point" transform="translate(110.67,143.17)" d="M3,0A3,3 0 1,1 0,-3A3,3 0 0,1 3,0Z" style="opacity: 1; stroke: rgb(239, 85, 59); stroke-opacity: 1; stroke-width: 1px; fill: none;"/><path class="point" transform="translate(149.85,131.95)" d="M3,0A3,3 0 1,1 0,-3A3,3 0 0,1 3,0Z" style="opacity: 1; stroke: rgb(239, 85, 59); stroke-opacity: 1; stroke-width: 1px; fill: none;"/><path class="point" transform="translate(46.87,120.73)" d="M3,0A3,3 0 1,1 0,-3A3,3 0 0,1 3,0Z" style="opacity: 1; stroke: rgb(239, 85, 59); stroke-opacity: 1; stroke-width: 1px; fill: none;"/><path class="point" transform="translate(61.31,109.51)" d="M3,0A3,3 0 1,1 0,-3A3,3 0 0,1 3,0Z" style="opacity: 1; stroke: rgb(239, 85, 59); stroke-opacity: 1; stroke-width: 1px; fill: none;"/><path class="point" transform="translate(29.56,98.29)" d="M3,0A3,3 0 1,1 0,-3A3,3 0 0,1 3,0Z" style="opacity: 1; stroke: rgb(239, 85, 59); stroke-opacity: 1; stroke-width: 1px; fill: none;"/><path class="point" transform="translate(17.95,87.07)" d="M3,0A3,3 0 1,1 0,-3A3,3 0 0,1 3,0Z" style="opacity: 1; stroke: rgb(239, 85, 59); stroke-opacity: 1; stroke-width: 1px; fill: none;"/><path class="point" transform="translate(227.1,75.85)" d="M3,0A3,3 0 1,1 0,-3A3,3 0 0,1 3,0Z" style="opacity: 1; stroke: rgb(239, 85, 59); stroke-opacity: 1; stroke-width: 1px; fill: none;"/><path class="point" transform="translate(153.36,64.63)" d="M3,0A3,3 0 1,1 0,-3A3,3 0 0,1 3,0Z" style="opacity: 1; stroke: rgb(239, 85, 59); stroke-opacity: 1; stroke-width: 1px; fill: none;"/><path class="point" transform="translate(32.59,53.41)" d="M3,0A3,3 0 1,1 0,-3A3,3 0 0,1 3,0Z" style="opacity: 1; stroke: rgb(239, 85, 59); stroke-opacity: 1; stroke-width: 1px; fill: none;"/><path class="point" transform="translate(111.24,42.19)" d="M3,0A3,3 0 1,1 0,-3A3,3 0 0,1 3,0Z" style="opacity: 1; stroke: rgb(239, 85, 59); stroke-opacity: 1; stroke-width: 1px; fill: none;"/><path class="point" transform="translate(71.18,30.97)" d="M3,0A3,3 0 1,1 0,-3A3,3 0 0,1 3,0Z" style="opacity: 1; stroke: rgb(239, 85, 59); stroke-opacity: 1; stroke-width: 1px; fill: none;"/></g><g class="text"/></g><g class="trace scatter trace413fcd" style="stroke-miterlimit: 2; opacity: 1;"><g class="fills"/><g class="errorbars"/><g class="lines"/><g class="points"><path class="point" transform="translate(84.84,19.75)" d="M3.6,1.2H1.2V3.6H-1.2V1.2H-3.6V-1.2H-1.2V-3.6H1.2V-1.2H3.6Z" style="opacity: 1; stroke-width: 0px; fill: rgb(239, 85, 59); fill-opacity: 1;"/></g><g class="text"/></g></g></g><g class="overplot"/><path class="xlines-above crisp" d="M0,0" style="fill: none;"/><path class="ylines-above crisp" d="M0,0" style="fill: none;"/><g class="overlines-above"/><g class="xaxislayer-above"><g class="x2tick"><text text-anchor="middle" x="0" y="433" transform="translate(468.48,0)" style="font-family: 'Open Sans', verdana, arial, sans-serif; font-size: 12px; fill: rgb(42, 63, 95); fill-opacity: 1; white-space: pre;">0.15</text></g><g class="x2tick"><text text-anchor="middle" x="0" y="433" transform="translate(563.15,0)" style="font-family: 'Open Sans', verdana, arial, sans-serif; font-size: 12px; fill: rgb(42, 63, 95); fill-opacity: 1; white-space: pre;">0.2</text></g></g><g class="yaxislayer-above"/><g class="overaxes-above"/></g></g><g class="polarlayer"/><g class="ternarylayer"/><g class="geolayer"/><g class="funnelarealayer"/><g class="pielayer"/><g class="treemaplayer"/><g class="sunburstlayer"/><g class="glimages"/><defs id="topdefs-38145b"><g class="clips"/><clipPath id="legend38145b"><rect width="57" height="96" x="0" y="0"/></clipPath></defs><g class="layer-above"><g class="imagelayer"/><g class="shapelayer"/></g><g class="infolayer"><g class="legend" pointer-events="all" transform="translate(630.8,100)"><rect class="bg" shape-rendering="crispEdges" width="57" height="96" x="0" y="0" style="stroke: rgb(68, 68, 68); stroke-opacity: 1; fill: rgb(255, 255, 255); fill-opacity: 1; stroke-width: 0px;"/><g class="scrollbox" transform="" clip-path="url('#legend38145b')"><g class="groups" transform=""><g class="traces" transform="translate(0,14.5)" style="opacity: 1;"><text class="legendtext" text-anchor="start" x="40" y="4.680000000000001" style="font-family: 'Open Sans', verdana, arial, sans-serif; font-size: 12px; fill: rgb(42, 63, 95); fill-opacity: 1; white-space: pre;">e'</text><g class="layers" style="opacity: 1;"><g class="legendfill"/><g class="legendlines"/><g class="legendsymbols"><g class="legendpoints"><path class="scatterpts" transform="translate(20,0)" d="M3.6,1.2H1.2V3.6H-1.2V1.2H-3.6V-1.2H-1.2V-3.6H1.2V-1.2H3.6Z" style="opacity: 1; stroke-width: 0px; fill: rgb(99, 110, 250); fill-opacity: 1;"/></g></g></g><rect class="legendtoggle" x="0" y="-9.5" width="51.265625" height="19" style="fill: rgb(0, 0, 0); fill-opacity: 0;"/></g><g class="traces" transform="translate(0,33.5)" style="opacity: 1;"><text class="legendtext" text-anchor="start" x="40" y="4.680000000000001" style="font-family: 'Open Sans', verdana, arial, sans-serif; font-size: 12px; fill: rgb(42, 63, 95); fill-opacity: 1; white-space: pre;">e'</text><g class="layers" style="opacity: 1;"><g class="legendfill"/><g class="legendlines"/><g class="legendsymbols"><g class="legendpoints"><path class="scatterpts" transform="translate(20,0)" d="M3,0A3,3 0 1,1 0,-3A3,3 0 0,1 3,0Z" style="opacity: 1; stroke: rgb(99, 110, 250); stroke-opacity: 1; stroke-width: 1px; fill: none;"/></g></g></g><rect class="legendtoggle" x="0" y="-9.5" width="51.265625" height="19" style="fill: rgb(0, 0, 0); fill-opacity: 0;"/></g></g><g class="groups" transform="translate(0,10)"><g class="traces" transform="translate(0,52.5)" style="opacity: 1;"><text class="legendtext" text-anchor="start" x="40" y="4.680000000000001" style="font-family: 'Open Sans', verdana, arial, sans-serif; font-size: 12px; fill: rgb(42, 63, 95); fill-opacity: 1; white-space: pre;">e''</text><g class="layers" style="opacity: 1;"><g class="legendfill"/><g class="legendlines"/><g class="legendsymbols"><g class="legendpoints"><path class="scatterpts" transform="translate(20,0)" d="M3.6,1.2H1.2V3.6H-1.2V1.2H-3.6V-1.2H-1.2V-3.6H1.2V-1.2H3.6Z" style="opacity: 1; stroke-width: 0px; fill: rgb(239, 85, 59); fill-opacity: 1;"/></g></g></g><rect class="legendtoggle" x="0" y="-9.5" width="51.265625" height="19" style="fill: rgb(0, 0, 0); fill-opacity: 0;"/></g><g class="traces" transform="translate(0,71.5)" style="opacity: 1;"><text class="legendtext" text-anchor="start" x="40" y="4.680000000000001" style="font-family: 'Open Sans', verdana, arial, sans-serif; font-size: 12px; fill: rgb(42, 63, 95); fill-opacity: 1; white-space: pre;">e''</text><g class="layers" style="opacity: 1;"><g class="legendfill"/><g class="legendlines"/><g class="legendsymbols"><g class="legendpoints"><path class="scatterpts" transform="translate(20,0)" d="M3,0A3,3 0 1,1 0,-3A3,3 0 0,1 3,0Z" style="opacity: 1; stroke: rgb(239, 85, 59); stroke-opacity: 1; stroke-width: 1px; fill: none;"/></g></g></g><rect class="legendtoggle" x="0" y="-9.5" width="51.265625" height="19" style="fill: rgb(0, 0, 0); fill-opacity: 0;"/></g></g></g><rect class="scrollbar" rx="20" ry="3" width="0" height="0" x="0" y="0" style="fill: rgb(128, 139, 164); fill-opacity: 1;"/></g><g class="g-gtitle"><text class="gtitle" x="35" y="50" text-anchor="start" dy="0em" style="font-family: 'Open Sans', verdana, arial, sans-serif; font-size: 17px; fill: rgb(42, 63, 95); opacity: 1; font-weight: normal; white-space: pre;">Error difference by oracles</text></g><g class="g-xtitle"/><g class="g-x2title"/><g class="g-ytitle"/><g class="g-y2title"/><g class="annotation" data-index="0" style="opacity: 1;"><g class="annotation-text-g" transform="rotate(0,201.5,89.5)"><g class="cursor-pointer" transform="translate(169,79)"><rect class="bg" x="0.5" y="0.5" width="64" height="20" style="stroke-width: 1px; stroke: rgb(0, 0, 0); stroke-opacity: 0; fill: rgb(0, 0, 0); fill-opacity: 0;"/><text class="annotation-text" text-anchor="middle" x="32.25" y="16" style="font-family: 'Open Sans', verdana, arial, sans-serif; font-size: 16px; fill: rgb(42, 63, 95); fill-opacity: 1; white-space: pre;">pedaling</text></g></g></g><g class="annotation" data-index="1" style="opacity: 1;"><g class="annotation-text-g" transform="rotate(0,498.5,89.5)"><g class="cursor-pointer" transform="translate(470,79)"><rect class="bg" x="0.5" y="0.5" width="56" height="20" style="stroke-width: 1px; stroke: rgb(0, 0, 0); stroke-opacity: 0; fill: rgb(0, 0, 0); fill-opacity: 0;"/><text class="annotation-text" text-anchor="middle" x="28.6875" y="16" style="font-family: 'Open Sans', verdana, arial, sans-serif; font-size: 16px; fill: rgb(42, 63, 95); fill-opacity: 1; white-space: pre;">velocity</text></g></g></g></g></svg>